<svg xmlns="http://www.w3.org/2000/svg" viewBox="0 0 960 640"><defs><clipPath id="flag"><path d="M44 112C205 68 336 139 486 105c164-37 292-22 430 45v385c-151-75-290-91-452-45-149 42-278-29-420 35z"/></clipPath><filter id="shadow" x="-20%" y="-20%" width="140%" height="140%"><feDropShadow dx="0" dy="12" stdDeviation="16" flood-color="#0f172a" flood-opacity=".18"/></filter><linearGradient id="green" x1="0" x2="1" y1="0" y2="1"><stop stop-color="#0b8f5a"/><stop offset=".55" stop-color="#01411c"/><stop offset="1" stop-color="#063f27"/></linearGradient><linearGradient id="fold" x1="0" x2="1"><stop stop-color="#ffffff" stop-opacity=".65"/><stop offset=".25" stop-color="#000000" stop-opacity=".10"/><stop offset=".5" stop-color="#ffffff" stop-opacity=".22"/><stop offset=".75" stop-color="#000000" stop-opacity=".12"/><stop offset="1" stop-color="#ffffff" stop-opacity=".18"/></linearGradient></defs><g filter="url(#shadow)" clip-path="url(#flag)"><rect width="960" height="640" fill="url(#green)"/><rect width="235" height="640" fill="#fff"/><rect width="960" height="640" fill="url(#fold)" opacity=".55"/><path fill="#fff" d="M604 178a148 148 0 1 0 0 300 178 178 0 1 1 0-300z"/><path fill="#fff" d="m692 238 25 64 68-4-53 42 25 64-57-38-53 42 18-66-57-38 68-4z"/></g></svg>